HIERARCHY
ROOT Hips
{
	OFFSET 0.000000 0.000000 0.000000 
	CHANNELS 6 Xposition Yposition Zposition Zrotation Yrotation Xrotation
	JOINT LeftUpLeg
	{
		OFFSET 1.363060 -1.794630 0.839290 
		CHANNELS 3 Zrotation Yrotation Xrotation
		JOINT LeftLeg
		{
			OFFSET 2.448110 -6.726130 0.000000 
			CHANNELS 3 Zrotation Yrotation Xrotation
			JOINT LeftFoot
			{
				OFFSET 2.562200 -7.039590 0.000000 
				CHANNELS 3 Zrotation Yrotation Xrotation
				JOINT LeftToeBase
				{
					OFFSET 0.157640 -0.433110 2.322550 
					CHANNELS 3 Zrotation Yrotation Xrotation
					End Site
					{
						OFFSET 0.000000 0.000000 0.000000 
					}
				}
			}
		}
	}
	JOINT RightUpLeg
	{
		OFFSET -1.305520 -1.794630 0.839290 
		CHANNELS 3 Zrotation Yrotation Xrotation
		JOINT RightLeg
		{
			OFFSET -2.542530 -6.985550 0.000000 
			CHANNELS 3 Zrotation Yrotation Xrotation
			JOINT RightFoot
			{
				OFFSET -2.568260 -7.056230 0.000000 
				CHANNELS 3 Zrotation Yrotation Xrotation
				JOINT RightToeBase
				{
					OFFSET -0.164730 -0.452590 2.363150 
					CHANNELS 3 Zrotation Yrotation Xrotation
					End Site
					{
						OFFSET 0.000000 0.000000 0.000000 
					}
				}
			}
		}
	}
	JOINT Spine
	{
		OFFSET 0.028270 2.035590 -0.193380 
		CHANNELS 3 Zrotation Yrotation Xrotation
		JOINT Spine1
		{
			OFFSET 0.056720 2.048850 -0.042750 
			CHANNELS 3 Zrotation Yrotation Xrotation
			JOINT Neck1
			{
				OFFSET -0.054170 1.746240 0.172020 
				CHANNELS 3 Zrotation Yrotation Xrotation
				JOINT Head
				{
					OFFSET 0.104070 1.761360 -0.123970 
					CHANNELS 3 Zrotation Yrotation Xrotation
					End Site
					{
						OFFSET 0.000000 0.000000 0.000000 
					}
				}
			}
			JOINT LeftArm
			{
				OFFSET 3.362410 1.200890 -0.311210 
				CHANNELS 3 Zrotation Yrotation Xrotation
				JOINT LeftForeArm
				{
					OFFSET 4.983000 -0.000000 -0.000000 
					CHANNELS 3 Zrotation Yrotation Xrotation
					JOINT LeftHand
					{
						OFFSET 3.483560 -0.000000 -0.000000 
						CHANNELS 3 Zrotation Yrotation Xrotation
						JOINT LeftHandIndex1
						{
							OFFSET 0.715260 -0.000000 -0.000000 
							CHANNELS 3 Zrotation Yrotation Xrotation
							End Site
							{
								OFFSET 0.000000 0.000000 0.000000 
							}
						}
					}
				}
			}
			JOINT RightArm
			{
				OFFSET -3.136600 1.374050 -0.404650 
				CHANNELS 3 Zrotation Yrotation Xrotation
				JOINT RightForeArm
				{
					OFFSET -5.241900 -0.000000 -0.000000 
					CHANNELS 3 Zrotation Yrotation Xrotation
					JOINT RightHand
					{
						OFFSET -3.444170 -0.000000 -0.000000 
						CHANNELS 3 Zrotation Yrotation Xrotation
						JOINT RightHandIndex1
						{
							OFFSET -0.622530 -0.000000 -0.000000 
							CHANNELS 3 Zrotation Yrotation Xrotation
							End Site
							{
								OFFSET 0.000000 0.000000 0.000000 
							}
						}
					}
				}
			}
		}
	}
}
MOTION
Frames: 12
Frame Time: 0.041667
53.292869 17.149052 19.141433 -175.269232 -17.738447 177.367746 -14.981003 7.304388 -6.654011 0.992929 9.327759 25.366082 -0.332929 4.728550 -11.051614 0.001400 0.241300 0.662900 27.509446 -0.080308 -5.839403 -1.181057 -10.978005 30.178766 1.580155 -10.927193 -18.648221 -0.024200 -1.004300 2.760800 1.456937 -0.309405 -0.816186 -1.634891 -0.105731 6.098438 4.360458 3.787546 12.407255 -2.176500 2.446600 3.650500 -80.166759 -0.236231 28.926979 10.092498 -23.804086 -3.548470 -1.041234 -1.689001 -26.861867 -7.125000 0.000000 0.000000 74.727223 -0.618768 26.041034 -10.860300 24.508362 -3.788776 1.848201 0.865243 -0.126743 7.125000 0.000000 0.000000 
53.291579 17.150342 19.137669 -175.266714 -17.709759 177.406831 -14.978015 7.298198 -6.678340 0.993494 9.328369 25.365773 -0.361193 4.809140 -10.908768 0.000200 0.097600 0.268100 27.508850 -0.062896 -5.853877 -1.174701 -10.969112 30.145508 1.616552 -11.022767 -18.581945 -0.027600 -1.072900 2.949400 1.449161 -0.246158 -0.816617 -1.648286 -0.070637 6.085741 4.407173 3.743748 12.348005 -2.118500 2.418500 3.575900 -80.170122 -0.273506 29.041392 10.036850 -23.730223 -3.518995 -1.049341 -1.687560 -26.839343 -7.125000 0.000000 0.000000 74.723644 -0.666677 25.851151 -10.816480 24.465659 -3.776493 1.847780 0.858800 -0.086858 7.125000 0.000000 0.000000 
53.288998 17.151310 19.134443 -175.215610 -17.688667 177.415557 -14.942350 7.191070 -6.657052 0.995131 9.328807 25.370624 -0.403859 4.955437 -10.810585 0.000000 0.005800 0.016100 27.562237 -0.000406 -5.831745 -1.167589 -10.963683 30.119242 1.632827 -11.076041 -18.580555 -0.027700 -1.074400 2.953400 1.425650 -0.171710 -0.821001 -1.833915 -0.021709 6.059139 4.448111 3.685891 12.318979 -2.112800 2.393400 3.551400 -80.007180 -0.245680 29.282125 10.002245 -23.685046 -3.497590 -1.059673 -1.689454 -26.890867 -7.125000 0.000000 0.000000 74.894841 -0.731631 25.626455 -10.769836 24.422696 -3.763071 1.845884 0.858607 -0.029728 7.125000 0.000000 0.000000 
53.288460 17.151418 19.130357 -175.192293 -17.664044 177.455071 -14.910687 7.363547 -6.772346 1.000522 9.330477 25.375768 -0.438540 5.045690 -10.591843 0.001400 -0.245200 -0.673600 27.597771 0.040552 -5.845089 -1.159728 -10.959488 30.099171 1.579486 -10.930394 -18.664915 -0.029800 -1.113500 3.061200 1.450288 -0.272604 -0.826408 -1.703133 -0.079109 6.049884 4.412490 3.753363 12.304189 -2.122600 2.422400 3.542000 -80.212886 -0.216665 28.914803 9.929978 -23.597667 -3.473527 -1.060823 -1.679193 -26.735328 -7.125000 0.000000 0.000000 74.762430 -0.679969 25.689583 -10.677647 24.303545 -3.720754 1.856550 0.857354 0.113560 7.125000 0.000000 0.000000 
53.287278 17.151955 19.126486 -175.158711 -17.639589 177.484247 -14.878200 7.408890 -6.825261 1.003967 9.332413 25.382748 -0.463573 5.114302 -10.449109 0.003200 -0.365200 -1.003500 27.637540 0.081450 -5.848887 -1.152322 -10.953925 30.073836 1.572031 -10.913232 -18.685661 -0.031900 -1.153000 3.170000 1.452689 -0.283990 -0.830187 -1.708687 -0.083772 6.039131 4.412678 3.752685 12.282600 -2.122700 2.420800 3.523200 -80.239993 -0.212116 28.837232 9.862272 -23.513711 -3.445389 -1.062852 -1.676326 -26.678512 -7.125000 0.000000 0.000000 74.774925 -0.674234 25.576088 -10.596534 24.206016 -3.688384 1.862514 0.853609 0.222208 7.125000 0.000000 0.000000 
53.286202 17.152386 19.122400 -175.121860 -17.614181 177.511698 -14.841444 7.445302 -6.870327 1.006980 9.334151 25.389965 -0.476945 5.144695 -10.340414 0.004200 -0.420600 -1.155800 27.680331 0.116244 -5.854885 -1.145521 -10.949356 30.050795 1.564075 -10.893680 -18.703535 -0.034400 -1.197600 3.292700 1.454408 -0.296036 -0.832905 -1.722554 -0.088465 6.036379 4.411410 3.750391 12.265037 -2.126700 2.419100 3.508900 -80.251818 -0.215972 28.755052 9.785531 -23.418389 -3.413841 -1.064165 -1.673287 -26.629786 -7.125000 0.000000 0.000000 74.803339 -0.659103 25.443383 -10.504673 24.094823 -3.651653 1.869412 0.848622 0.340709 7.125000 0.000000 0.000000 
53.285020 17.152708 19.118207 -175.088028 -17.586102 177.538457 -14.806988 7.463091 -6.902640 1.009280 9.336055 25.397767 -0.479040 5.141039 -10.280421 0.004100 -0.413900 -1.137300 27.717393 0.138809 -5.861631 -1.138389 -10.942728 30.022956 1.558402 -10.875388 -18.704219 -0.037400 -1.248300 3.432300 1.455082 -0.302638 -0.834871 -1.737792 -0.090293 6.037838 4.417047 3.749576 12.249898 -2.125300 2.418400 3.495300 -80.253702 -0.227193 28.673085 9.698171 -23.310153 -3.378039 -1.065249 -1.670225 -26.578507 -7.125000 0.000000 0.000000 74.841120 -0.643761 25.285748 -10.404176 23.972976 -3.611878 1.876617 0.842293 0.471148 7.125000 0.000000 0.000000 
53.283944 17.153246 19.113798 -175.051168 -17.558276 177.563138 -14.770409 7.461192 -6.923168 1.011427 9.337911 25.406549 -0.478026 5.134742 -10.269516 0.003700 -0.392900 -1.079600 27.754410 0.153091 -5.867932 -1.131112 -10.935220 29.992338 1.558542 -10.869947 -18.686698 -0.040100 -1.292000 3.552600 1.452390 -0.294174 -0.836319 -1.772491 -0.083541 6.040435 4.431388 3.740996 12.236473 -2.119900 2.414400 3.480700 -80.233617 -0.237238 28.620115 9.604832 -23.194355 -3.339071 -1.067602 -1.666822 -26.528569 -7.125000 0.000000 0.000000 74.903374 -0.638933 25.087114 -10.298414 23.846215 -3.571064 1.881777 0.834363 0.602823 7.125000 0.000000 0.000000 
53.282762 17.153891 19.109282 -175.014618 -17.529350 177.585955 -14.734771 7.438114 -6.930423 1.013584 9.340214 25.416493 -0.477325 5.137694 -10.300809 0.003400 -0.374500 -1.029000 27.789097 0.161173 -5.871798 -1.123767 -10.926758 29.960019 1.556900 -10.856576 -18.663424 -0.042500 -1.329900 3.657100 1.449876 -0.285541 -0.837655 -1.803895 -0.076612 6.041353 4.449560 3.734631 12.223951 -2.110400 2.411500 3.464300 -80.216541 -0.245706 28.555173 9.504433 -23.069667 -3.297404 -1.072081 -1.662184 -26.477339 -7.125000 0.000000 0.000000 74.962696 -0.639734 24.890292 -10.189925 23.716427 -3.529087 1.885909 0.826861 0.733663 7.125000 0.000000 0.000000 
53.281471 17.154429 19.104873 -174.976271 -17.500055 177.605497 -14.696513 7.419820 -6.939582 1.016551 9.342796 25.428432 -0.482454 5.167492 -10.353052 0.003800 -0.400300 -1.100000 27.826019 0.166961 -5.874239 -1.116178 -10.917729 29.925861 1.555989 -10.844056 -18.634173 -0.042900 -1.336900 3.676200 1.447289 -0.268734 -0.839608 -1.834330 -0.065513 6.035879 4.467429 3.721462 12.214023 -2.100100 2.405000 3.446400 -80.212594 -0.239966 28.485780 9.401286 -22.942072 -3.254784 -1.078241 -1.657172 -26.405059 -7.125000 0.000000 0.000000 75.021948 -0.654787 24.671020 -10.078582 23.583686 -3.486838 1.889931 0.819703 0.867383 7.125000 0.000000 0.000000 
53.280288 17.154966 19.100465 -174.935584 -17.471285 177.624768 -14.655670 7.412754 -6.956248 1.020300 9.345664 25.441414 -0.493903 5.220923 -10.398573 0.005300 -0.470000 -1.291500 27.866030 0.175820 -5.876209 -1.108310 -10.908409 29.890832 1.556733 -10.836999 -18.605700 -0.041600 -1.315700 3.617900 1.446193 -0.252340 -0.842494 -1.854691 -0.055287 6.025838 4.482054 3.706938 12.208010 -2.091200 2.397700 3.431500 -80.221672 -0.229401 28.400343 9.293893 -22.809292 -3.211036 -1.083201 -1.653919 -26.320543 -7.125000 0.000000 0.000000 75.074192 -0.674997 24.444407 -9.965421 23.447702 -3.444084 1.893844 0.812937 1.006711 7.125000 0.000000 0.000000 
53.278891 17.155396 19.096163 -174.895270 -17.440679 177.643106 -14.615181 7.400767 -6.969295 1.024179 9.349032 25.455908 -0.505562 5.275206 -10.447066 0.006800 -0.531900 -1.461500 27.908147 0.191167 -5.874058 -1.100497 -10.899139 29.856485 1.557339 -10.831279 -18.582979 -0.040500 -1.298300 3.569800 1.445994 -0.237561 -0.845410 -1.871098 -0.046164 6.015066 4.488099 3.689758 12.205470 -2.087300 2.389000 3.420000 -80.234265 -0.222541 28.309595 9.180932 -22.669275 -3.165578 -1.087736 -1.652259 -26.247310 -7.125000 0.000000 0.000000 75.120720 -0.696319 24.225394 -9.852621 23.311668 -3.401576 1.897762 0.806760 1.141796 7.125000 0.000000 0.000000 
